<svg width="180" height="180" viewBox="0 0 180 180" fill="none" xmlns="http://www.w3.org/2000/svg">
<g clip-path="url(#clip0)">
<path d="M90.0696 -8.94974e-05C40.3607 -0.0419254 0.041777 40.2215 -5.89798e-05 89.9303C-0.0418949 139.639 40.2215 179.958 89.9303 180C139.632 179.958 179.923 139.702 180 89.9999C180 40.3189 139.751 0.0417464 90.0696 -8.94974e-05ZM89.9303 165.023C48.4969 165.023 14.9072 131.433 14.9072 89.9999C14.9072 48.5665 48.4969 14.9768 89.9303 14.9768C131.35 15.0187 164.912 48.5806 164.953 89.9999C164.953 131.433 131.364 165.023 89.9303 165.023Z" fill="#213242"/>
<path d="M114.242 85.6115C120.26 82.2189 123.513 75.4274 122.392 68.6145C120.999 58.0961 108.46 54.1252 98.5683 53.2895V37.4769H88.8159V53.1503H82.2681V37.4769H72.5157V53.1503H52.8715V63.251H60.1857C63.4599 63.251 65.0619 64.2263 65.0619 66.8732V110.271C65.0619 113.893 63.2507 115.008 61.3002 115.008H53.8467V125.318H72.7942V141.339H82.6161V125.318H89.164V141.339H98.7075V125.318H100.797C120.859 125.318 127.547 115.496 127.547 102.121C127.386 94.2353 121.918 87.4505 114.242 85.6115ZM82.2677 63.8779H89.2336C94.1098 63.8779 103.723 64.7139 103.723 72.655C104.057 77.8377 100.303 82.3795 95.1546 83.0342H82.2677C82.2677 83.0342 82.2677 63.8779 82.2677 63.8779ZM93.0649 114.032V113.963H82.2677V93.0649H94.8066C97.7323 93.0649 108.738 94.0402 108.738 101.842C108.738 109.644 103.514 114.032 93.0649 114.032Z" fill="#213242"/>
</g>
<defs>
<clipPath id="clip0">
<rect width="180" height="180" fill="white"/>
</clipPath>
</defs>
</svg>
