<svg xmlns="http://www.w3.org/2000/svg" width="30" height="30" viewBox="0 0 30 30">
    <path fill="#6AB04C" d="M15 0c.624 0 1.13.506 1.13 1.13 0 .625-.506 1.131-1.13 1.131C7.976 2.261 2.261 7.976 2.261 15c0 7.024 5.715 12.739 12.739 12.739 7.024 0 12.739-5.715 12.739-12.739 0-.625.506-1.13 1.13-1.13.625 0 1.131.506 1.131 1.13 0 8.27-6.73 15-15 15-8.271 0-15-6.73-15-15C0 6.729 6.729 0 15 0zm12.543 4.1c.442-.442 1.158-.44 1.6.001.44.442.44 1.158-.003 1.6L14.743 20.06c-.212.21-.5.33-.798.33l-.024-.001c-.308-.006-.6-.138-.808-.364l-5.691-6.18c-.423-.46-.394-1.176.066-1.599.46-.422 1.175-.393 1.598.066l4.893 5.316z"/>
</svg>
